<svg xmlns="http://www.w3.org/2000/svg" xmlns:xlink="http://www.w3.org/1999/xlink" viewBox="0 0 68 90" version="1.1">
    <defs>
        <polygon id="path-1" points="0.0005 0.386 69.1445 0.386 69.1445 89.9999765 0.0005 89.9999765"/>
    </defs>
    <g id="UI" stroke="none" stroke-width="1" fill="none" fill-rule="evenodd">
        <g id="01_Home_Desktop" transform="translate(-20.000000, -6.000000)">
            <g id="header">
                <g id="Group-180" transform="translate(20.000000, 5.000000)">
                    <g id="Group-77" transform="translate(0.000000, 0.614200)" class="">
                        <mask id="mask-2" fill="white">
                            <use xlink:href="#path-1"/>
                        </mask>
                        <g id="Clip-76"/>
                        
                    </g>
                    <path d="M8.6426,70.9371 L8.8066,71.0771 C9.7336,71.8661 10.8506,72.4411 11.2576,72.3951 C11.4266,72.3761 11.5676,72.3051 11.6786,72.2251 C11.4976,72.4281 11.2886,72.6511 11.0626,72.8851 C10.7276,72.9161 10.4136,72.8181 10.1536,72.6911 C9.4966,72.3711 8.8146,71.8721 8.4176,71.5341 L8.1976,71.3331 C8.3596,71.1921 8.5096,71.0571 8.6426,70.9371" id="Fill-78" fill="#050048"/>
                    <path d="M8.1836,69.8736 L8.2096,69.8776 L8.2366,69.8766 C9.0856,69.8476 10.0286,70.3156 10.7436,71.1396 C10.8906,71.3096 11.0066,71.4716 11.0976,71.6206 C11.3876,71.7426 11.6496,71.8126 11.8476,71.7976 C11.7126,71.4336 11.4596,71.0496 11.1966,70.7466 C10.3696,69.7916 9.2596,69.2366 8.2326,69.2756 C8.1136,69.2686 7.7056,69.2696 7.1046,69.5556 C6.9736,69.8536 6.8636,70.1506 6.7726,70.4446 C7.6406,69.8266 8.1776,69.8736 8.1836,69.8736" id="Fill-80" fill="#050048"/>
                    <path d="M11.0322,82.4292 C11.7522,82.5272 12.1192,82.5492 12.8632,82.5622 C12.8592,82.7472 12.8562,82.8482 12.8522,83.0572 C12.3432,83.0482 12.0902,83.0352 11.5912,82.9892 C11.5752,83.3052 11.5672,83.4762 11.5512,83.8172 C11.8442,83.8442 11.9912,83.8542 12.2882,83.8682 C12.2812,84.0932 12.2782,84.2062 12.2702,84.4302 C11.9702,84.4162 11.8202,84.4072 11.5242,84.3802 C11.5002,84.8912 11.4882,85.1472 11.4652,85.5702 C11.2142,85.5472 11.0892,85.5332 10.8412,85.5022 C10.9152,84.4282 10.9582,83.5022 11.0322,82.4292" id="Fill-82" fill="#050048"/>
                    <path d="M13.4922,82.5621 C13.7322,82.5571 13.8522,82.5531 14.0942,82.5421 C14.1042,83.6241 14.1032,84.5451 14.1142,85.6271 C13.8562,85.6371 13.7272,85.6401 13.4712,85.6431 C13.4772,84.5631 13.4862,83.6411 13.4922,82.5621" id="Fill-84" fill="#050048"/>
                    <path d="M15.5952,82.9195 C15.6272,83.7155 15.6412,84.2195 15.6742,85.0195 C15.8522,85.0025 15.9422,84.9935 16.1202,84.9755 C16.2802,84.9585 16.4192,84.9035 16.5382,84.8095 C16.6582,84.7145 16.7462,84.5955 16.8052,84.4515 C16.8892,84.2465 16.9262,84.0235 16.9112,83.7915 C16.8922,83.4735 16.7862,83.2345 16.5972,83.0755 C16.4082,82.9165 16.1762,82.8575 15.8982,82.8875 C15.7772,82.9005 15.7162,82.9065 15.5952,82.9195 M14.9552,82.4875 C15.4052,82.4515 15.6322,82.4295 16.0862,82.3755 C16.3552,82.3445 16.6002,82.3695 16.8232,82.4605 C17.0452,82.5525 17.2222,82.7055 17.3522,82.9305 C17.4832,83.1555 17.5602,83.4205 17.5812,83.7155 C17.6022,84.0085 17.5722,84.2795 17.4882,84.5205 C17.4042,84.7625 17.2862,84.9495 17.1372,85.0905 C17.0302,85.1905 16.8862,85.2745 16.7072,85.3465 C16.5282,85.4185 16.3372,85.4645 16.1342,85.4845 C15.6942,85.5295 15.4732,85.5485 15.0352,85.5785 C15.0002,84.4925 14.9892,83.5725 14.9552,82.4875" id="Fill-86" fill="#050048"/>
                    <path d="M18.1358,82.0845 C18.9788,81.9485 19.4018,81.8715 20.2408,81.7205 C20.2668,81.9115 20.2798,82.0145 20.3058,82.2275 C19.7088,82.3335 19.4088,82.3875 18.8088,82.4885 C18.8358,82.7585 18.8488,82.9015 18.8758,83.1895 C19.2448,83.1285 19.4308,83.0965 19.7988,83.0315 C19.8198,83.2255 19.8288,83.3235 19.8498,83.5195 C19.4798,83.5835 19.2928,83.6155 18.9208,83.6775 C18.9548,84.0515 18.9728,84.2405 19.0078,84.5895 C19.6268,84.4895 19.9358,84.4365 20.5458,84.3285 C20.5718,84.5395 20.5838,84.6415 20.6108,84.8315 C19.7408,84.9825 19.2998,85.0595 18.4118,85.1925 C18.2988,84.0955 18.2488,83.1825 18.1358,82.0845" id="Fill-88" fill="#050048"/>
                    <path d="M22.2647,81.3589 C23.0917,81.2169 23.5017,81.1499 24.3077,81.0419 C24.3367,81.2319 24.3507,81.3349 24.3797,81.5459 C23.8127,81.6219 23.5247,81.6679 22.9437,81.7629 C22.9807,82.0319 22.9987,82.1739 23.0357,82.4619 C23.3907,82.4019 23.5667,82.3729 23.9147,82.3189 C23.9397,82.5109 23.9517,82.6089 23.9767,82.8019 C23.6287,82.8559 23.4517,82.8849 23.0977,82.9459 C23.1457,83.3179 23.1697,83.5059 23.2177,83.8539 C23.7997,83.7539 24.0857,83.7059 24.6457,83.6219 C24.6737,83.8309 24.6877,83.9309 24.7167,84.1199 C23.9287,84.2419 23.5197,84.3139 22.6827,84.4629 C22.5117,83.3619 22.4357,82.4599 22.2647,81.3589" id="Fill-90" fill="#050048"/>
                    <path d="M24.707,80.9908 C25.612,80.8808 26.057,80.8398 26.92,80.8128 C26.94,80.9978 26.95,81.0958 26.97,81.2998 C26.653,81.3108 26.493,81.3208 26.169,81.3448 C26.281,82.3348 26.333,82.9958 26.448,83.8898 C26.234,83.9128 26.125,83.9258 25.905,83.9528 C25.78,83.0538 25.724,82.3888 25.602,81.3948 C25.274,81.4268 25.109,81.4458 24.776,81.4868 C24.749,81.2798 24.735,81.1778 24.707,80.9908" id="Fill-92" fill="#050048"/>
                    <path d="M42.208,80.8287 C42.428,80.8337 42.539,80.8387 42.764,80.8497 C42.667,81.7557 42.614,82.3977 42.515,83.3877 C42.972,83.4287 43.207,83.4557 43.688,83.5177 C43.665,83.7267 43.654,83.8297 43.631,84.0207 C42.923,83.9247 42.583,83.8847 41.937,83.8357 C42.041,82.7507 42.104,81.9137 42.208,80.8287" id="Fill-94" fill="#050048"/>
                    <path d="M45.3819,81.9517 C45.1909,82.3717 45.0959,82.5977 44.9059,83.0267 C45.1829,83.0687 45.3229,83.0917 45.6049,83.1377 C45.5149,82.6617 45.4709,82.4147 45.3819,81.9517 M45.1579,81.0927 C45.4129,81.1287 45.5419,81.1467 45.7989,81.1857 C46.0589,82.3717 46.1899,83.2737 46.4629,84.4727 C46.2179,84.4307 46.0949,84.4097 45.8529,84.3677 C45.7909,84.0887 45.7599,83.9357 45.6989,83.6267 C45.3019,83.5607 45.1049,83.5287 44.7179,83.4707 C44.5929,83.7487 44.5299,83.8857 44.4059,84.1337 C44.1739,84.0977 44.0599,84.0807 43.8329,84.0487 C44.3489,82.9897 44.6209,82.1577 45.1579,81.0927" id="Fill-96" fill="#050048"/>
                    <path d="M47.6929,83.2515 C47.6539,83.6465 47.6329,83.8445 47.5939,84.2115 C47.7969,84.2475 47.8999,84.2665 48.1039,84.3025 C48.3689,84.3495 48.5619,84.3385 48.6829,84.2715 C48.8029,84.2025 48.8709,84.0965 48.8839,83.9495 C48.8969,83.8135 48.8549,83.6895 48.7619,83.5805 C48.6689,83.4715 48.5249,83.3985 48.3319,83.3645 C48.0759,83.3195 47.9469,83.2975 47.6929,83.2515 M47.8219,81.9805 C47.7909,82.2735 47.7749,82.4315 47.7429,82.7445 C48.0109,82.7925 48.1459,82.8165 48.4159,82.8645 C48.5599,82.8905 48.6889,82.8675 48.8029,82.7955 C48.8769,82.7495 48.9199,82.6675 48.9309,82.5535 C48.9409,82.4415 48.9079,82.3455 48.8359,82.2635 C48.7629,82.1815 48.6419,82.1255 48.4729,82.0965 C48.2119,82.0495 48.0819,82.0255 47.8219,81.9805 M47.2569,81.4255 C47.7929,81.5185 48.0619,81.5665 48.6029,81.6635 C48.9229,81.7215 49.1579,81.8075 49.3059,81.9245 C49.5179,82.0945 49.6119,82.3055 49.5899,82.5695 C49.5729,82.7685 49.4899,82.9295 49.3419,83.0455 C49.2429,83.1245 48.9219,83.2115 48.9219,83.2115 C48.9209,83.2205 49.1779,83.3565 49.2519,83.4305 C49.3549,83.5325 49.4319,83.6505 49.4829,83.7815 C49.5329,83.9135 49.5549,84.0415 49.5439,84.1645 C49.5319,84.3105 49.4819,84.4395 49.3929,84.5575 C49.3039,84.6735 49.1709,84.7545 48.9939,84.8035 C48.8179,84.8505 48.5989,84.8515 48.3399,84.8055 C47.7649,84.7045 47.4789,84.6525 46.9139,84.5535 C47.0509,83.4255 47.1199,82.5535 47.2569,81.4255" id="Fill-98" fill="#050048"/>
                    <path d="M51.4893,82.6119 C51.2753,82.5789 51.0933,82.6329 50.9413,82.7799 C50.7883,82.9269 50.6973,83.2039 50.6703,83.6129 C50.6423,84.0149 50.6963,84.3109 50.8303,84.5029 C50.9653,84.6939 51.1473,84.8029 51.3753,84.8369 C51.5923,84.8679 51.7773,84.8129 51.9283,84.6649 C52.0803,84.5159 52.1653,84.2429 52.1833,83.8439 C52.2033,83.3989 52.1333,83.0809 51.9723,82.8829 C51.8483,82.7309 51.6883,82.6419 51.4893,82.6119 M51.4613,82.1019 C51.7583,82.1489 51.9923,82.2279 52.1673,82.3419 C52.3963,82.4939 52.5673,82.6879 52.6813,82.9429 C52.7963,83.1969 52.8463,83.5299 52.8323,83.9369 C52.8123,84.4899 52.6703,84.8829 52.3973,85.1089 C52.1253,85.3359 51.7703,85.4069 51.3373,85.3449 C50.8993,85.2839 50.5543,85.1099 50.3063,84.8019 C50.0593,84.4949 49.9593,84.0599 50.0013,83.5029 C50.0273,83.1679 50.1053,82.8769 50.2293,82.6399 C50.2983,82.5099 50.3943,82.3949 50.5213,82.2999 C50.6483,82.2039 50.7913,82.1409 50.9513,82.1079 C51.1113,82.0749 51.2813,82.0739 51.4613,82.1019" id="Fill-100" fill="#050048"/>
                    <path d="M54.0493,83.0005 C54.0433,83.3295 54.0403,83.5065 54.0343,83.8565 C54.2303,83.8735 54.3283,83.8805 54.5223,83.8935 C54.6993,83.9035 54.8503,83.8575 54.9723,83.7585 C55.0533,83.6915 55.0923,83.5965 55.0923,83.4735 C55.0923,83.3555 55.0483,83.2565 54.9593,83.1765 C54.8703,83.0965 54.7273,83.0515 54.5293,83.0375 C54.3383,83.0245 54.2423,83.0175 54.0493,83.0005 M53.4593,82.4305 C53.7903,82.4675 53.9533,82.4825 54.2803,82.5095 C54.7183,82.5455 55.0153,82.5885 55.1803,82.6565 C55.3443,82.7255 55.4713,82.8305 55.5633,82.9825 C55.6553,83.1345 55.7023,83.3125 55.7053,83.5195 C55.7083,83.7085 55.6693,83.8685 55.5873,83.9935 C55.5053,84.1185 55.3603,84.2245 55.1503,84.3075 C55.3713,84.8835 55.4853,85.1785 55.7093,85.6615 C55.4683,85.6605 55.3473,85.6575 55.1043,85.6485 C54.8963,85.1985 54.7933,84.9315 54.5883,84.3985 C54.3653,84.3855 54.2533,84.3775 54.0273,84.3585 C54.0193,84.8805 54.0143,85.1435 54.0033,85.5885 C53.7503,85.5695 53.6223,85.5595 53.3663,85.5345 C53.4083,84.4225 53.4173,83.5435 53.4593,82.4305" id="Fill-102" fill="#050048"/>
                    <path d="M56.2315,82.5806 C56.9985,82.5676 57.3705,82.5406 58.0785,82.4226 C58.0875,82.6116 58.0935,82.7136 58.1045,82.9236 C57.6005,83.0076 57.3395,83.0336 56.8035,83.0626 C56.8125,83.3306 56.8165,83.4716 56.8255,83.7546 C57.1555,83.7356 57.3185,83.7226 57.6365,83.6846 C57.6455,83.8746 57.6505,83.9716 57.6595,84.1626 C57.3375,84.2006 57.1735,84.2146 56.8395,84.2326 C56.8525,84.6016 56.8585,84.7886 56.8695,85.1336 C57.4245,85.1016 57.6945,85.0736 58.2155,84.9886 C58.2275,85.1966 58.2325,85.2976 58.2415,85.4856 C57.4985,85.6056 57.1065,85.6376 56.2965,85.6566 C56.2775,84.5586 56.2505,83.6786 56.2315,82.5806" id="Fill-104" fill="#050048"/>
                    <path d="M23.376,24.1753 C23.376,24.6503 25.75,24.8143 29.292,24.8703 C30.954,24.3523 32.368,23.7003 33.409,22.9553 C27.772,23.0193 23.376,23.5413 23.376,24.1753" id="Fill-106" fill="#050048"/>
                    <path d="M45.7681,24.1753 C45.7681,23.5413 41.3751,23.0193 35.7411,22.9553 C36.7741,23.6943 38.1841,24.3443 39.8601,24.8653 C43.3571,24.8063 45.7681,24.6383 45.7681,24.1753" id="Fill-108" fill="#050048"/>
                    <path d="M53.0205,15.0572 C53.5205,14.2552 54.1995,13.1082 54.8135,12.0572 C55.2885,12.3412 55.7435,12.6182 56.1325,12.8602 L56.7675,11.8422 C56.3685,11.5932 55.9015,11.3102 55.4165,11.0202 C55.9465,10.1042 56.3325,9.4282 56.3415,9.4122 L55.8195,9.1152 L55.3035,8.8092 C55.2945,8.8252 54.9005,9.4912 54.3655,10.3982 C53.8955,10.1202 53.4375,9.8542 53.0375,9.6222 L52.4355,10.6612 C52.8335,10.8912 53.2885,11.1572 53.7565,11.4312 C53.1425,12.4732 52.4715,13.6142 51.9985,14.4282 C51.9935,14.4362 51.9845,14.4482 51.9785,14.4572 C51.7005,14.2972 51.3095,14.0722 50.8535,13.8072 L50.2505,14.8452 C50.6915,15.1002 51.0705,15.3192 51.3475,15.4782 C50.0705,17.3992 48.7685,18.4172 46.9795,17.6712 C44.8515,16.7822 44.8595,14.3822 45.2415,12.5252 C45.2865,12.3082 45.3395,12.0692 45.3985,11.8142 L46.4415,13.1742 L46.3415,10.6542 L48.6295,9.7712 L46.2795,9.0972 L46.1785,6.5782 L44.8275,8.6792 L42.4775,8.0052 L43.9915,9.9792 L42.6415,12.0822 L44.2325,11.4682 C44.0975,11.9072 43.9595,12.3272 43.8275,12.6822 C43.5615,13.3982 41.6185,16.9402 38.7975,16.4782 C36.4795,16.0982 35.9005,13.3602 35.7955,11.3262 L36.6355,11.3262 L36.6355,10.1262 L35.7755,10.1262 L35.7755,7.2982 L37.6385,7.2982 L37.6385,5.5442 L35.7755,5.5442 L35.7755,1.7502 L34.5725,1.7502 L33.3695,1.7502 L33.3695,5.5442 L31.5055,5.5442 L31.5055,7.2982 L33.3695,7.2982 L33.3695,10.1262 L32.5085,10.1262 L32.5085,11.3262 L33.3525,11.3262 C33.2565,13.3672 32.6915,16.1662 30.3475,16.5502 C27.5265,17.0132 25.5835,13.4712 25.3175,12.7542 C25.1875,12.4072 25.0535,11.9982 24.9205,11.5702 C24.9135,11.5352 24.9045,11.4982 24.8955,11.4612 L26.5025,12.0822 L25.1525,9.9792 L26.6665,8.0052 L24.3165,8.6792 L22.9655,6.5782 L22.8645,9.0972 L20.5155,9.7712 L22.8025,10.6542 L22.7025,13.1742 L23.7425,11.8192 C23.7495,11.8422 23.7555,11.8652 23.7625,11.8872 C23.8155,12.1152 23.8625,12.3282 23.9025,12.5252 C24.2845,14.3822 24.2925,16.7822 22.1645,17.6712 C20.3755,18.4172 19.0735,17.3992 17.7965,15.4782 C18.0745,15.3192 18.4535,15.1002 18.8935,14.8452 L18.2915,13.8072 C17.8345,14.0722 17.4435,14.2972 17.1655,14.4572 C17.1595,14.4482 17.1515,14.4362 17.1455,14.4282 C16.6725,13.6142 16.0015,12.4732 15.3885,11.4312 C15.8555,11.1572 16.3105,10.8912 16.7085,10.6612 L16.1065,9.6222 C15.7065,9.8542 15.2495,10.1202 14.7785,10.3982 C14.2445,9.4912 13.8505,8.8252 13.8405,8.8092 L13.3245,9.1152 L12.8035,9.4122 C12.8125,9.4282 13.1985,10.1042 13.7285,11.0202 C13.2425,11.3102 12.7755,11.5932 12.3765,11.8422 L13.0115,12.8602 C13.4015,12.6182 13.8565,12.3412 14.3315,12.0572 C14.9445,13.1082 15.6235,14.2552 16.1245,15.0572 C16.2845,15.3332 16.4855,15.6742 16.7215,16.0382 C17.1265,16.8602 17.4085,18.0682 16.6075,19.7872 L17.6955,20.2942 C18.1025,19.4202 18.2755,18.6422 18.3085,17.9532 C19.0575,18.6202 19.9665,19.1152 21.0445,19.1152 C21.5375,19.1152 22.0635,19.0132 22.6265,18.7782 C24.1705,18.1322 25.0655,16.8432 25.2575,15.0462 C26.2825,16.4172 27.8935,17.7912 29.8535,17.7912 C30.0785,17.7912 30.3075,17.7732 30.5415,17.7342 C32.9885,17.3332 34.4015,15.0672 34.5565,11.3262 L34.5715,11.3262 L34.5735,11.3262 L34.5895,11.3262 C34.7595,15.0242 36.1715,17.2642 38.6035,17.6622 C38.8365,17.7012 39.0665,17.7182 39.2915,17.7182 C41.2475,17.7182 42.8565,16.3492 43.8815,14.9812 C44.0595,16.8112 44.9555,18.1252 46.5175,18.7782 C47.0805,19.0132 47.6075,19.1152 48.0995,19.1152 C49.1775,19.1152 50.0865,18.6202 50.8355,17.9532 C50.8695,18.6422 51.0415,19.4202 51.4485,20.2942 L52.5375,19.7872 C51.7365,18.0682 52.0175,16.8602 52.4225,16.0382 C52.6595,15.6742 52.8595,15.3332 53.0205,15.0572" id="Fill-110" fill="#050048"/>
                    <path d="M39.1294,8.4097 C39.5454,8.4207 39.8904,8.0937 39.9014,7.6787 C39.9124,7.2637 39.5854,6.9177 39.1704,6.9067 C38.7544,6.8947 38.4084,7.2227 38.3974,7.6387 C38.3864,8.0537 38.7134,8.3987 39.1294,8.4097" id="Fill-112" fill="#050048"/>
                    <path d="M41.1358,8.7159 C41.5518,8.7269 41.8968,8.3999 41.9078,7.9849 C41.9188,7.5699 41.5918,7.2229 41.1768,7.2129 C40.7608,7.2009 40.4158,7.5289 40.4048,7.9439 C40.3938,8.3589 40.7208,8.7049 41.1358,8.7159" id="Fill-114" fill="#050048"/>
                    <path d="M49.3721,11.2955 C49.7631,11.4385 50.1941,11.2375 50.3371,10.8475 C50.4791,10.4575 50.2801,10.0255 49.8891,9.8825 C49.4991,9.7405 49.0671,9.9415 48.9251,10.3305 C48.7821,10.7205 48.9821,11.1525 49.3721,11.2955" id="Fill-116" fill="#050048"/>
                    <path d="M51.1768,12.2242 C51.5678,12.3672 51.9988,12.1662 52.1418,11.7762 C52.2838,11.3872 52.0848,10.9542 51.6948,10.8122 C51.3038,10.6692 50.8718,10.8702 50.7298,11.2592 C50.5868,11.6492 50.7868,12.0812 51.1768,12.2242" id="Fill-118" fill="#050048"/>
                    <path d="M30.0152,8.4097 C30.4312,8.3987 30.7582,8.0537 30.7472,7.6387 C30.7362,7.2227 30.3902,6.8947 29.9742,6.9067 C29.5592,6.9177 29.2322,7.2637 29.2432,7.6787 C29.2552,8.0937 29.5992,8.4207 30.0152,8.4097" id="Fill-120" fill="#050048"/>
                    <path d="M28.0088,8.7159 C28.4238,8.7049 28.7508,8.3589 28.7398,7.9439 C28.7288,7.5289 28.3838,7.2009 27.9688,7.2129 C27.5528,7.2229 27.2258,7.5699 27.2368,7.9849 C27.2478,8.3999 27.5938,8.7269 28.0088,8.7159" id="Fill-122" fill="#050048"/>
                    <path d="M19.7725,11.2955 C20.1625,11.1525 20.3625,10.7205 20.2195,10.3305 C20.0775,9.9415 19.6455,9.7405 19.2545,9.8825 C18.8645,10.0255 18.6655,10.4575 18.8075,10.8475 C18.9505,11.2375 19.3815,11.4385 19.7725,11.2955" id="Fill-124" fill="#050048"/>
                    <path d="M17.9678,12.2242 C18.3578,12.0812 18.5578,11.6492 18.4148,11.2592 C18.2728,10.8702 17.8408,10.6692 17.4498,10.8122 C17.0598,10.9542 16.8598,11.3872 17.0028,11.7762 C17.1458,12.1662 17.5768,12.3672 17.9678,12.2242" id="Fill-126" fill="#050048"/>
                    <path d="M34.5723,20.7115 C41.5953,20.7115 49.0603,21.6455 49.0603,23.3765 C49.0603,23.5355 48.9893,23.6825 48.8673,23.8185 C49.9633,23.4805 50.5253,23.1075 50.5253,22.7405 C50.5253,21.3945 43.9743,19.8935 34.5723,19.8935 C25.1713,19.8935 18.6183,21.3945 18.6183,22.7405 C18.6183,23.1075 19.1813,23.4805 20.2763,23.8185 C20.1553,23.6825 20.0843,23.5355 20.0843,23.3765 C20.0843,21.6455 27.5493,20.7115 34.5723,20.7115" id="Fill-128" fill="#050048"/>
                    <path d="M34.5723,20.9971 C26.0763,20.9971 20.3693,22.2271 20.3693,23.3761 C20.3693,23.6071 20.6283,23.8371 21.1543,24.0551 C21.3923,24.1121 21.6513,24.1661 21.9213,24.2201 C21.8843,24.1611 21.8623,24.1001 21.8623,24.0371 C21.8623,22.9531 27.5523,22.0751 34.5723,22.0751 C41.5923,22.0751 47.2823,22.9531 47.2823,24.0371 C47.2823,24.1001 47.2613,24.1611 47.2233,24.2201 C47.4933,24.1661 47.7533,24.1121 47.9903,24.0551 C48.5163,23.8371 48.7753,23.6071 48.7753,23.3761 C48.7753,22.2271 43.0683,20.9971 34.5723,20.9971" id="Fill-130" fill="#050048"/>
                    <path d="M43.8301,17.7583 C43.7501,18.1063 43.4031,18.3213 43.0571,18.2423 C42.7101,18.1613 42.4941,17.8163 42.5741,17.4683 C42.6541,17.1213 43.5521,16.0993 43.5521,16.0993 C43.5521,16.0993 43.9101,17.4113 43.8301,17.7583" id="Fill-132" fill="#050048"/>
                    <path d="M25.3145,17.7583 C25.3945,18.1063 25.7415,18.3213 26.0875,18.2423 C26.4345,18.1613 26.6505,17.8163 26.5715,17.4683 C26.4905,17.1213 25.5925,16.0993 25.5925,16.0993 C25.5925,16.0993 25.2345,17.4113 25.3145,17.7583" id="Fill-134" fill="#050048"/>
                    <path d="M33.9277,16.2486 C33.9277,16.6046 34.2167,16.8936 34.5727,16.8936 C34.9277,16.8936 35.2167,16.6046 35.2167,16.2486 C35.2167,15.8926 34.5727,14.6936 34.5727,14.6936 C34.5727,14.6936 33.9277,15.8926 33.9277,16.2486" id="Fill-136" fill="#050048"/>
                    <path d="M48.0996,19.8653 C47.4866,19.8653 46.8566,19.7323 46.2276,19.4703 C45.5166,19.1723 44.9256,18.7503 44.4526,18.2233 C44.2236,18.6963 43.7466,19.0083 43.2016,19.0083 C43.0966,19.0083 42.9916,18.9963 42.8886,18.9733 C42.3076,18.8383 41.8996,18.3573 41.8246,17.7993 C41.0656,18.2083 40.2166,18.4683 39.2906,18.4683 C39.0196,18.4683 38.7466,18.4463 38.4806,18.4023 C37.6886,18.2723 36.6526,17.9093 35.7586,16.9713 C35.5136,17.3723 35.0756,17.6433 34.5726,17.6433 C34.0686,17.6433 33.6306,17.3723 33.3856,16.9713 C32.4916,17.9093 31.4546,18.2723 30.6626,18.4023 C30.3976,18.4463 30.1246,18.4683 29.8526,18.4683 C28.9286,18.4683 28.0786,18.2083 27.3206,17.7993 C27.2446,18.3573 26.8366,18.8383 26.2566,18.9733 C26.1526,18.9963 26.0476,19.0083 25.9426,19.0083 L25.9426,19.0083 C25.3976,19.0083 24.9216,18.6963 24.6926,18.2233 C24.2186,18.7493 23.6276,19.1723 22.9156,19.4693 C22.2876,19.7323 21.6576,19.8653 21.0446,19.8653 C20.1976,19.8653 19.4456,19.6153 18.7846,19.2263 C18.7786,19.2483 18.7736,19.2693 18.7676,19.2913 C18.8286,19.6193 18.9026,19.9703 18.9736,20.3023 C19.0426,20.6343 19.1006,20.9073 19.1436,21.1363 C21.7036,19.7023 28.2916,18.9413 34.5726,18.9413 C40.8516,18.9413 47.4396,19.7023 50.0006,21.1363 C50.0436,20.9073 50.1006,20.6343 50.1706,20.3023 C50.2286,20.0323 50.2876,19.7503 50.3406,19.4773 C50.3196,19.4073 50.3016,19.3383 50.2836,19.2693 C49.6406,19.6333 48.9136,19.8653 48.0996,19.8653" id="Fill-138" fill="#050048"/>
                    <path d="M57.8867,72.3951 C57.7187,72.3761 57.5767,72.3051 57.4657,72.2251 C57.6467,72.4281 57.8557,72.6511 58.0817,72.8851 C58.4157,72.9161 58.7297,72.8181 58.9907,72.6911 C59.6487,72.3711 60.3307,71.8721 60.7267,71.5341 L60.9467,71.3331 C60.8667,71.2621 60.7887,71.1951 60.7147,71.1281 C60.7097,71.1241 60.7057,71.1201 60.7007,71.1161 C60.6307,71.0531 60.5647,70.9941 60.5017,70.9371 L60.3377,71.0771 C59.4107,71.8661 58.2927,72.4411 57.8867,72.3951" id="Fill-140" fill="#050048"/>
                    <path d="M58.4009,71.1392 C59.1159,70.3162 60.0589,69.8472 60.9079,69.8762 L60.9349,69.8772 L60.9609,69.8732 C60.9669,69.8732 61.5039,69.8272 62.3719,70.4452 C62.2819,70.1512 62.1709,69.8542 62.0399,69.5552 C61.4389,69.2692 61.0309,69.2682 60.9119,69.2762 C59.8849,69.2372 58.7759,69.7912 57.9479,70.7462 C57.6849,71.0492 57.4319,71.4332 57.2969,71.7972 C57.4949,71.8132 57.7559,71.7432 58.0469,71.6202 C58.1379,71.4712 58.2539,71.3092 58.4009,71.1392" id="Fill-142" fill="#050048"/>
                    <path d="M39.2876,86.022 C39.0086,86.145 38.8046,86.292 38.7216,86.446 C38.9186,86.536 39.1726,86.619 39.4426,86.705 C39.7796,86.812 40.8026,87.138 41.0586,87.522 C41.0736,87.543 41.0976,87.555 41.1216,87.555 C41.1306,87.555 41.1396,87.551 41.1486,87.548 C41.0406,87.277 40.9036,86.94 40.7486,86.563 C40.3906,86.379 39.9696,86.243 39.6246,86.133 C39.5066,86.095 39.3926,86.059 39.2876,86.022" id="Fill-144" fill="#050048"/>
                    <path d="M38.4263,85.9048 L38.4313,85.8798 C38.4363,85.8148 38.4743,85.7468 38.5513,85.6668 C38.6183,85.5748 38.8833,85.3808 39.4433,85.2338 C39.5403,85.2068 39.6413,85.1808 39.7463,85.1598 C39.9683,85.1138 40.2293,85.0848 40.5223,85.0688 C40.5843,85.0648 40.6383,85.0698 40.7233,85.0848 L40.8593,85.0848 C42.6343,85.0848 45.2353,85.5318 47.3263,85.8928 C47.7123,85.9598 48.0883,86.0238 48.4473,86.0848 C49.4933,86.2598 50.4483,86.4208 51.5333,86.5918 C52.8923,86.8088 54.2643,86.9198 55.6113,86.9198 C60.0673,86.9198 62.4873,85.8558 63.1203,85.5318 C63.1753,85.5068 63.6643,85.2718 64.1103,85.0338 L63.8963,84.4718 C63.8923,84.4728 63.8883,84.4708 63.8853,84.4728 C63.4603,84.7038 62.9603,84.9428 62.8593,84.9908 L62.8313,85.0058 C62.2303,85.3128 59.9343,86.3188 55.6093,86.3188 C54.2973,86.3188 52.9573,86.2128 51.6283,86.0008 C50.5283,85.8248 49.5273,85.6568 48.6073,85.5038 L48.5463,85.4928 C48.1883,85.4318 47.8133,85.3678 47.4243,85.3008 C45.1993,84.9178 42.6773,84.4828 40.8753,84.4828 C40.3523,84.4828 39.9053,84.5188 39.5473,84.5928 C39.2133,84.6608 38.4203,84.8648 38.0853,85.2928 C38.1943,85.5438 38.2923,85.7708 38.3773,85.9668 C38.4023,85.9558 38.4233,85.9328 38.4263,85.9048" id="Fill-146" fill="#050048"/>
                    <path d="M12.4033,77.2701 C9.6893,77.2701 7.5493,76.3171 6.5313,74.6551 C5.8823,73.5941 5.7313,72.2991 6.0943,70.9081 C6.2163,70.5311 6.3263,70.2181 6.4233,69.9611 C6.3413,70.0411 6.2593,70.1241 6.1743,70.2141 C6.1743,70.2141 5.9243,70.5761 5.5613,71.0781 C5.4153,71.5001 5.2863,72.0211 5.3033,72.4781 C5.3403,73.3821 5.5643,74.2241 6.0193,74.9681 C7.1483,76.8121 9.4753,77.8701 12.4033,77.8701 C12.8273,77.8701 13.2603,77.8461 13.7013,77.8011 C14.0943,77.5641 14.4553,77.3091 14.7773,77.0431 C13.9633,77.1911 13.1653,77.2701 12.4033,77.2701" id="Fill-148" fill="#050048"/>
                    <path d="M1.1094,75.4976 C0.9164,75.6156 0.7414,75.7196 0.5884,75.8076 C0.9204,76.5916 2.4674,79.7726 6.3214,81.6686 L6.5374,81.1016 C2.7764,79.2176 1.3214,76.0076 1.1094,75.4976" id="Fill-150" fill="#050048"/>
                    <path d="M15.3477,77.1148 C14.1617,78.3568 11.7437,79.8068 8.8337,79.8068 C8.7447,79.8068 8.6567,79.8028 8.5677,79.8008 C8.9987,80.0188 9.4827,80.1908 10.0027,80.3278 C11.8457,80.0918 13.6807,79.3168 15.0997,78.1548 L15.4227,77.0978 C15.3957,77.0908 15.3677,77.0938 15.3477,77.1148" id="Fill-152" fill="#050048"/>
                    <path d="M31.7666,80.0914 C30.3646,79.6504 28.9436,79.5594 27.2406,79.5594 C25.4656,79.5594 23.5486,79.7624 21.6956,80.1474 C21.4076,80.2074 21.0996,80.2744 20.7726,80.3444 C18.8766,80.7554 16.3846,81.2354 13.9136,81.2914 C13.7696,81.2944 13.6286,81.2964 13.4896,81.2964 C10.9726,81.2964 8.9466,80.7724 7.1096,79.6444 C7.1056,79.6414 7.1006,79.6444 7.0956,79.6434 L6.8796,80.2074 C8.7866,81.3594 10.8876,81.8964 13.4916,81.8964 C13.6346,81.8964 13.7806,81.8944 13.9276,81.8914 C16.4486,81.8324 18.9776,81.3474 20.9006,80.9304 C21.2246,80.8604 21.5316,80.7934 21.8176,80.7354 C23.6306,80.3584 25.5066,80.1584 27.2406,80.1584 C28.8886,80.1584 30.2576,80.2444 31.5856,80.6634 C31.6526,80.6834 31.9066,80.7834 32.1346,80.9314 C32.2096,80.9804 32.3556,81.1104 32.4166,81.1934 C32.4936,81.2964 32.5316,81.3994 32.5286,81.4984 C32.5276,81.5314 32.5496,81.5574 32.5786,81.5694 C32.6836,81.2874 32.7726,81.0334 32.8406,80.8194 C32.7506,80.6804 32.6636,80.5934 32.6456,80.5764 C32.3226,80.2754 31.8906,80.1284 31.7666,80.0914" id="Fill-154" fill="#050048"/>
                    <path d="M28.085,87.522 C28.341,87.138 29.365,86.812 29.702,86.705 C29.972,86.618 30.226,86.536 30.422,86.446 C30.34,86.292 30.136,86.145 29.857,86.022 C29.751,86.059 29.637,86.095 29.519,86.133 C29.175,86.243 28.754,86.379 28.397,86.563 C28.24,86.94 28.104,87.277 27.996,87.548 C28.004,87.551 28.014,87.555 28.023,87.555 C28.047,87.555 28.071,87.543 28.085,87.522" id="Fill-156" fill="#050048"/>
                    <path d="M34.5723,83.7828 C33.5953,83.7668 32.6853,83.6408 31.8523,83.4078 C31.7763,83.5948 31.6993,83.7798 31.6223,83.9638 C32.3763,84.1798 33.1973,84.3168 34.0613,84.3648 C34.0733,84.3738 34.0873,84.3798 34.1023,84.3798 L34.2063,84.3838 C34.2603,84.3848 34.3133,84.3868 34.3683,84.3868 C34.4373,84.3868 34.5043,84.3838 34.5723,84.3818 C34.6393,84.3838 34.7073,84.3868 34.7753,84.3868 C34.8303,84.3868 34.8843,84.3848 34.9383,84.3838 L35.0423,84.3798 C35.0573,84.3798 35.0713,84.3738 35.0833,84.3648 C35.9473,84.3168 36.7673,84.1798 37.5213,83.9638 C37.4453,83.7798 37.3683,83.5948 37.2913,83.4078 C36.4593,83.6408 35.5483,83.7668 34.5723,83.7828" id="Fill-158" fill="#050048"/>
                    <path d="M29.5977,84.5923 C29.2397,84.5193 28.7917,84.4833 28.2687,84.4833 C26.4667,84.4833 23.9447,84.9173 21.7167,85.3013 C21.3307,85.3673 20.9557,85.4323 20.5987,85.4923 L20.5367,85.5033 C19.6177,85.6563 18.6167,85.8243 17.5167,86.0003 C16.1867,86.2123 14.8477,86.3193 13.5347,86.3193 C9.2097,86.3193 6.9137,85.3133 6.3127,85.0053 L6.2807,84.9883 C6.1837,84.9433 5.6847,84.7033 5.2587,84.4733 C5.2557,84.4713 5.2517,84.4733 5.2487,84.4723 L5.0347,85.0333 C5.4807,85.2723 5.9697,85.5063 6.0227,85.5303 C6.6577,85.8563 9.0767,86.9193 13.5347,86.9193 C14.8797,86.9193 16.2517,86.8093 17.6117,86.5923 C18.6967,86.4203 19.6507,86.2603 20.6977,86.0843 C21.0567,86.0243 21.4317,85.9593 21.8187,85.8933 C23.9097,85.5313 26.5107,85.0843 28.2857,85.0843 L28.4367,85.0833 C28.5007,85.0713 28.5597,85.0653 28.6217,85.0693 C28.9147,85.0843 29.1757,85.1133 29.3977,85.1593 C29.5027,85.1813 29.6037,85.2063 29.7027,85.2353 C30.2617,85.3803 30.5257,85.5743 30.5997,85.6743 C30.6697,85.7463 30.7077,85.8153 30.7137,85.8793 C30.7137,85.8833 30.7187,85.9123 30.7197,85.9173 C30.7237,85.9433 30.7427,85.9603 30.7657,85.9713 C30.8507,85.7763 30.9507,85.5443 31.0587,85.2923 C30.7247,84.8643 29.9307,84.6603 29.5977,84.5923" id="Fill-160" fill="#050048"/>
                    <path d="M34.5723,89.5152 C31.7513,89.5112 29.4323,88.9082 28.4933,87.9572 C28.3033,88.0472 28.1193,88.1572 27.9753,88.2822 C28.9703,89.3852 31.3513,90.0732 34.3363,90.1122 L34.3383,90.1122 L34.4273,90.1142 C34.4663,90.1152 34.5043,90.1162 34.5443,90.1162 C34.5533,90.1162 34.5623,90.1152 34.5723,90.1152 C34.5813,90.1152 34.5913,90.1162 34.6003,90.1162 C34.6403,90.1162 34.6783,90.1152 34.7173,90.1142 L34.8053,90.1122 L34.8073,90.1122 C37.7933,90.0732 40.1743,89.3852 41.1693,88.2822 C41.0253,88.1572 40.8413,88.0472 40.6503,87.9572 C39.7123,88.9082 37.3923,89.5112 34.5723,89.5152" id="Fill-162" fill="#050048"/>
                    <path d="M68.5567,75.8072 C68.4037,75.7192 68.2287,75.6162 68.0357,75.4972 C67.8237,76.0072 66.3687,79.2172 62.6067,81.1022 L62.8237,81.6682 C66.6767,79.7732 68.2237,76.5912 68.5567,75.8072" id="Fill-164" fill="#050048"/>
                    <path d="M36.6201,81.5005 C36.6201,81.4925 36.6191,81.4845 36.6161,81.4775 C36.6191,81.3845 36.6561,81.2885 36.7271,81.1925 C36.7891,81.1095 36.9341,80.9795 37.0101,80.9315 C37.2381,80.7835 37.4921,80.6835 37.5591,80.6625 C38.8871,80.2445 40.2561,80.1585 41.9041,80.1585 C43.6381,80.1585 45.5131,80.3575 47.3261,80.7345 C47.6131,80.7935 47.9201,80.8595 48.2441,80.9305 C50.1671,81.3475 52.6961,81.8325 55.2171,81.8915 C55.3641,81.8945 55.5091,81.8965 55.6531,81.8965 C58.2571,81.8965 60.3581,81.3585 62.2651,80.2075 L62.0491,79.6435 C62.0441,79.6455 62.0391,79.6415 62.0341,79.6445 C60.1981,80.7715 58.1711,81.2965 55.6551,81.2965 C55.5161,81.2965 55.3741,81.2945 55.2301,81.2915 C52.7601,81.2345 50.2671,80.7555 48.3711,80.3445 C48.0451,80.2735 47.7361,80.2075 47.4491,80.1465 C45.5961,79.7625 43.6791,79.5595 41.9041,79.5595 C40.2011,79.5595 38.7801,79.6495 37.3791,80.0905 C37.2541,80.1285 36.8221,80.2745 36.4981,80.5765 C36.4801,80.5935 36.3931,80.6805 36.3041,80.8185 C36.3721,81.0325 36.4611,81.2875 36.5651,81.5675 C36.5941,81.5595 36.6201,81.5335 36.6201,81.5005" id="Fill-166" fill="#050048"/>
                    <path d="M63.5825,71.0777 C63.2205,70.5757 62.9695,70.2147 62.9695,70.2147 C62.8855,70.1237 62.8025,70.0407 62.7215,69.9617 C62.8185,70.2187 62.9285,70.5307 63.0495,70.9077 C63.4135,72.2997 63.2615,73.5947 62.6125,74.6547 C61.5955,76.3167 59.4555,77.2697 56.7405,77.2697 C55.9795,77.2697 55.1815,77.1907 54.3665,77.0437 C54.6895,77.3087 55.0495,77.5637 55.4425,77.8017 C55.8835,77.8467 56.3175,77.8697 56.7405,77.8697 C59.6685,77.8697 61.9955,76.8117 63.1245,74.9687 C63.5805,74.2237 63.8035,73.3827 63.8405,72.4777 C63.8585,72.0207 63.7295,71.5007 63.5825,71.0777" id="Fill-168" fill="#050048"/>
                    <path d="M54.0278,77.3443 L54.6518,78.6083 C55.9678,79.5173 57.5508,80.1233 59.1418,80.3273 C59.6608,80.1913 60.1458,80.0193 60.5768,79.8003 C60.4878,79.8033 60.3988,79.8073 60.3108,79.8073 C57.5778,79.8073 55.2798,78.5283 54.0278,77.3443" id="Fill-170" fill="#050048"/>
                    <path d="M56.5195,32.3638 C56.5195,33.6058 56.5125,39.3708 56.4985,49.5428 L42.3355,49.5428 L41.1805,46.2908 L44.5745,48.1938 L40.6495,39.1318 L49.3555,33.5298 L38.3345,33.5298 L34.6305,24.5668 C35.1975,24.9678 35.8535,25.3408 36.5825,25.6838 C36.5815,25.6848 36.5815,25.6858 36.5815,25.6868 C36.6105,25.6998 36.6415,25.7138 36.6705,25.7268 C36.7545,25.7658 36.8405,25.8038 36.9265,25.8428 C37.0775,25.9108 37.2295,25.9768 37.3855,26.0428 L37.4445,26.0658 C40.5255,27.3408 44.6175,28.1048 48.7435,28.1048 C52.6215,28.1048 55.9765,27.4618 58.4915,26.2408 C57.4455,28.0508 56.5195,29.8298 56.5195,32.3638 L56.5195,32.3638 Z M49.2035,52.5218 C49.0195,52.2818 48.8975,52.1368 48.8365,52.0898 C48.7755,52.0418 48.6785,52.0098 48.5445,51.9988 L48.5415,51.8798 L50.5775,51.8798 L50.5775,51.9988 C50.4285,52.0378 50.3545,52.1138 50.3545,52.2248 C50.3545,52.2848 50.4075,52.3838 50.5145,52.5218 L51.3025,53.5368 L52.1185,52.5218 C52.2365,52.3718 52.2955,52.2638 52.2955,52.2028 C52.2955,52.0938 52.2105,52.0258 52.0395,51.9988 L52.0395,51.8798 L54.0205,51.8798 L54.0205,51.9988 C53.9025,52.0098 53.8175,52.0378 53.7665,52.0788 C53.7155,52.1198 53.5845,52.2668 53.3735,52.5218 L51.9165,54.3288 L53.4485,56.2998 C53.6165,56.5178 53.7385,56.6568 53.8105,56.7168 C53.8835,56.7758 53.9855,56.8148 54.1145,56.8348 L54.1145,56.9538 L52.1015,56.9538 L52.1015,56.8348 C52.2495,56.8048 52.3245,56.7408 52.3245,56.6408 C52.3245,56.5908 52.2795,56.5058 52.1895,56.3888 L51.2435,55.1628 L50.2875,56.3478 C50.1855,56.4788 50.1335,56.5728 50.1335,56.6278 C50.1335,56.7508 50.2175,56.8198 50.3835,56.8348 L50.3835,56.9538 L48.4335,56.9538 L48.4335,56.8348 C48.5475,56.8228 48.6355,56.7908 48.6995,56.7388 C48.7625,56.6858 48.8895,56.5408 49.0805,56.2998 L50.6315,54.3718 L49.2035,52.5218 Z M56.4785,63.1898 L56.4765,65.0368 C56.4765,69.3448 55.7405,71.5408 53.8505,72.8678 C53.1975,73.3268 52.1955,73.6528 50.9975,73.9148 L49.3105,69.1688 L45.6765,58.9428 L56.4855,58.9428 C56.4835,60.3088 56.4815,61.7198 56.4785,63.1898 L56.4785,63.1898 Z M42.7515,55.6528 C42.9135,55.7968 43.1625,55.9208 43.4995,56.0248 C43.8365,56.1288 44.1565,56.1798 44.4585,56.1798 C44.7885,56.1798 45.0695,56.1258 45.3025,56.0138 C45.4315,55.9518 45.5335,55.8698 45.6115,55.7668 C45.6875,55.6648 45.7265,55.5568 45.7265,55.4458 C45.7265,55.2778 45.6355,55.1578 45.4545,55.0868 C45.3285,55.0368 45.0735,54.9908 44.6885,54.9488 L44.1165,54.8888 C43.7315,54.8498 43.4605,54.8118 43.3015,54.7758 C43.1435,54.7398 42.9845,54.6818 42.8265,54.6028 C42.6005,54.4918 42.4235,54.3238 42.2945,54.0998 C42.1785,53.8998 42.1205,53.6698 42.1205,53.4088 C42.1205,52.9788 42.2675,52.6258 42.5625,52.3438 C42.9495,51.9748 43.5285,51.7898 44.3025,51.7898 C44.6265,51.7898 44.9295,51.8228 45.2085,51.8888 C45.4895,51.9558 45.8385,52.0768 46.2575,52.2538 C46.4015,52.3098 46.4895,52.3398 46.5215,52.3398 C46.5735,52.3398 46.6345,52.3098 46.7045,52.2538 L46.8085,52.3088 L46.2015,53.5048 L46.0985,53.4438 C46.1005,53.4208 46.1015,53.3998 46.1015,53.3848 C46.1015,53.3008 46.0295,53.2108 45.8855,53.1138 C45.4445,52.8058 44.9265,52.6528 44.3315,52.6528 C44.0695,52.6528 43.8375,52.6848 43.6365,52.7498 C43.4905,52.7998 43.3725,52.8738 43.2825,52.9718 C43.1915,53.0708 43.1455,53.1778 43.1455,53.2958 C43.1455,53.4858 43.2615,53.6158 43.4915,53.6848 C43.6105,53.7188 43.8665,53.7568 44.2575,53.7968 L44.8415,53.8558 C45.1875,53.8928 45.4685,53.9438 45.6835,54.0088 C45.8975,54.0728 46.0875,54.1628 46.2535,54.2798 C46.4225,54.4008 46.5555,54.5598 46.6535,54.7588 C46.7515,54.9568 46.8005,55.1688 46.8005,55.3938 C46.8005,55.7508 46.6855,56.0668 46.4555,56.3438 C46.2475,56.5968 45.9235,56.7838 45.4845,56.9058 C45.1575,56.9978 44.8065,57.0438 44.4325,57.0438 C43.7605,57.0438 43.0975,56.8828 42.4435,56.5598 C42.3045,56.4958 42.2215,56.4638 42.1945,56.4638 C42.1625,56.4638 42.1115,56.4908 42.0415,56.5458 L41.9345,56.4888 L42.4845,55.2438 L42.5925,55.2958 L42.5925,55.3438 C42.5925,55.4558 42.6445,55.5588 42.7515,55.6528 L42.7515,55.6528 Z M46.6445,74.6158 C46.0775,74.6928 45.5005,74.7728 44.9235,74.8568 L43.9665,70.4028 L41.5055,58.9428 L43.7685,58.9428 L48.2535,74.3908 C47.7275,74.4678 47.1895,74.5418 46.6445,74.6158 L46.6445,74.6158 Z M39.0085,76.2548 L38.6225,71.5438 L37.5915,58.9428 L39.7235,58.9428 L42.2415,75.3028 C41.0415,75.5498 39.9375,75.8888 39.0085,76.2548 L39.0085,76.2548 Z M37.1305,56.6528 C36.8795,56.5018 36.7065,56.2958 36.6095,56.0358 C36.5155,55.7778 36.4685,55.4708 36.4685,55.1138 L36.4685,52.2698 C36.4685,52.1928 36.4515,52.1348 36.4165,52.0948 C36.3815,52.0548 36.3195,52.0228 36.2305,51.9988 L36.2305,51.8798 L37.8145,51.8798 L37.8145,51.9988 C37.7265,52.0198 37.6655,52.0518 37.6295,52.0928 C37.5945,52.1348 37.5765,52.1928 37.5765,52.2698 L37.5765,54.8008 C37.5765,55.0938 37.5925,55.3098 37.6245,55.4498 C37.6575,55.5908 37.7175,55.7078 37.8075,55.8008 C38.0445,56.0538 38.4515,56.1798 39.0265,56.1798 C39.6035,56.1798 40.0115,56.0538 40.2495,55.8008 C40.3365,55.7078 40.3955,55.5908 40.4275,55.4498 C40.4595,55.3098 40.4765,55.0938 40.4765,54.8008 L40.4765,52.2698 C40.4765,52.1928 40.4585,52.1348 40.4245,52.0948 C40.3895,52.0548 40.3275,52.0228 40.2385,51.9988 L40.2385,51.8798 L41.7325,51.8798 L41.7325,51.9988 C41.6435,52.0228 41.5815,52.0548 41.5465,52.0948 C41.5125,52.1348 41.4955,52.1928 41.4955,52.2698 L41.4955,55.1138 C41.4955,55.6518 41.3955,56.0538 41.1975,56.3218 C40.8405,56.8028 40.1035,57.0438 38.9855,57.0438 C38.1775,57.0438 37.5595,56.9128 37.1305,56.6528 L37.1305,56.6528 Z M34.5775,79.5008 C34.2375,79.0688 33.6595,78.4058 32.8865,77.7678 L33.3155,58.9428 L35.8635,58.9428 L36.2915,77.7478 C35.5075,78.3908 34.9205,79.0638 34.5775,79.5008 L34.5775,79.5008 Z M31.7875,54.8938 L29.9655,54.8938 L29.9655,56.5668 C29.9655,56.6408 29.9835,56.6998 30.0195,56.7408 C30.0555,56.7808 30.1175,56.8128 30.2045,56.8348 L30.2045,56.9538 L28.6205,56.9538 L28.6205,56.8348 C28.7085,56.8098 28.7715,56.7778 28.8055,56.7388 C28.8405,56.6988 28.8575,56.6408 28.8575,56.5668 L28.8575,52.2698 C28.8575,52.1928 28.8405,52.1348 28.8055,52.0948 C28.7715,52.0548 28.7085,52.0228 28.6205,51.9988 L28.6205,51.8798 L31.7875,51.8798 C32.1565,51.8798 32.4495,51.9038 32.6665,51.9538 C32.8835,52.0038 33.0755,52.0888 33.2415,52.2108 C33.4125,52.3368 33.5455,52.5028 33.6425,52.7088 C33.7395,52.9218 33.7875,53.1468 33.7875,53.3848 C33.7875,53.7268 33.6965,54.0268 33.5125,54.2848 C33.3535,54.5058 33.1435,54.6628 32.8815,54.7548 C32.6215,54.8478 32.2555,54.8938 31.7875,54.8938 L31.7875,54.8938 Z M30.5555,71.5438 L30.1695,76.2628 C29.2415,75.8968 28.1365,75.5558 26.9365,75.3078 L29.4555,58.9428 L31.5865,58.9428 L30.5555,71.5438 Z M25.2115,70.4028 L24.2545,74.8598 C23.6685,74.7748 23.0845,74.6938 22.5095,74.6158 C21.9725,74.5428 21.4425,74.4698 20.9235,74.3948 L25.4105,58.9428 L27.6735,58.9428 L25.2115,70.4028 Z M18.1805,73.9188 C17.7045,73.8148 17.2555,73.7018 16.8515,73.5728 L16.8485,73.5758 C16.2245,73.3788 15.6935,73.1478 15.2945,72.8678 C13.4045,71.5408 12.6675,69.3448 12.6675,65.0368 L12.6645,63.1898 C12.6635,61.7198 12.6615,60.3088 12.6595,58.9428 L23.5015,58.9428 L19.8685,69.1688 L18.1805,73.9188 Z M19.2725,53.1138 C18.8315,52.8058 18.3135,52.6528 17.7185,52.6528 C17.4565,52.6528 17.2245,52.6848 17.0235,52.7498 C16.8765,52.7998 16.7585,52.8738 16.6685,52.9718 C16.5785,53.0708 16.5325,53.1778 16.5325,53.2958 C16.5325,53.4858 16.6475,53.6158 16.8785,53.6848 C16.9975,53.7188 17.2525,53.7568 17.6445,53.7968 L18.2275,53.8558 C18.5745,53.8928 18.8555,53.9438 19.0695,54.0088 C19.2845,54.0728 19.4745,54.1628 19.6405,54.2798 C19.8095,54.4008 19.9425,54.5598 20.0405,54.7588 C20.1385,54.9568 20.1875,55.1688 20.1875,55.3938 C20.1875,55.7508 20.0715,56.0668 19.8415,56.3438 C19.6335,56.5968 19.3095,56.7838 18.8715,56.9058 C18.5435,56.9978 18.1935,57.0438 17.8185,57.0438 C17.1475,57.0438 16.4845,56.8828 15.8305,56.5598 C15.6915,56.4958 15.6085,56.4638 15.5815,56.4638 C15.5485,56.4638 15.4985,56.4908 15.4285,56.5458 L15.3205,56.4888 L15.8715,55.2438 L15.9785,55.2958 L15.9785,55.3438 C15.9785,55.4558 16.0325,55.5588 16.1385,55.6528 C16.2995,55.7968 16.5485,55.9208 16.8855,56.0248 C17.2235,56.1288 17.5425,56.1798 17.8445,56.1798 C18.1745,56.1798 18.4565,56.1258 18.6885,56.0138 C18.8175,55.9518 18.9205,55.8698 18.9975,55.7668 C19.0745,55.6648 19.1125,55.5568 19.1125,55.4458 C19.1125,55.2778 19.0225,55.1578 18.8415,55.0868 C18.7145,55.0368 18.4595,54.9908 18.0755,54.9488 L17.5025,54.8888 C17.1185,54.8498 16.8475,54.8118 16.6885,54.7758 C16.5305,54.7398 16.3715,54.6818 16.2125,54.6028 C15.9875,54.4918 15.8105,54.3238 15.6815,54.0998 C15.5645,53.8998 15.5065,53.6698 15.5065,53.4088 C15.5065,52.9788 15.6545,52.6258 15.9495,52.3438 C16.3355,51.9748 16.9155,51.7898 17.6885,51.7898 C18.0135,51.7898 18.3155,51.8228 18.5955,51.8888 C18.8755,51.9558 19.2255,52.0768 19.6445,52.2538 C19.7885,52.3098 19.8755,52.3398 19.9085,52.3398 C19.9605,52.3398 20.0215,52.3098 20.0905,52.2538 L20.1945,52.3088 L19.5885,53.5048 L19.4845,53.4438 C19.4875,53.4208 19.4885,53.3998 19.4885,53.3848 C19.4885,53.3008 19.4155,53.2108 19.2725,53.1138 L19.2725,53.1138 Z M25.2675,56.0048 C25.3855,55.8858 25.5305,55.8268 25.7015,55.8238 C25.8725,55.8238 26.0165,55.8838 26.1335,56.0028 C26.2515,56.1218 26.3105,56.2658 26.3105,56.4368 C26.3105,56.6028 26.2505,56.7458 26.1305,56.8648 C26.0105,56.9838 25.8675,57.0438 25.7015,57.0438 C25.5325,57.0438 25.3885,56.9828 25.2695,56.8628 C25.1505,56.7428 25.0915,56.5978 25.0915,56.4298 C25.0915,56.2638 25.1505,56.1218 25.2675,56.0048 L25.2675,56.0048 Z M23.5105,56.7388 C23.5455,56.7778 23.6075,56.8098 23.6975,56.8348 L23.6975,56.9538 L22.1135,56.9538 L22.1135,56.8348 C22.2025,56.8098 22.2645,56.7778 22.2985,56.7388 C22.3335,56.6988 22.3515,56.6398 22.3515,56.5638 L22.3515,52.7158 L20.7745,52.7158 C20.7005,52.7158 20.6435,52.7328 20.6035,52.7668 C20.5635,52.8008 20.5315,52.8638 20.5075,52.9538 L20.3885,52.9538 L20.3885,51.6408 L20.5075,51.6408 C20.5345,51.7318 20.5675,51.7938 20.6055,51.8288 C20.6445,51.8618 20.7005,51.8798 20.7745,51.8798 L25.0315,51.8798 C25.1085,51.8798 25.1665,51.8618 25.2065,51.8288 C25.2465,51.7938 25.2785,51.7318 25.3025,51.6408 L25.4215,51.6408 L25.4215,52.9538 L25.3025,52.9538 C25.2785,52.8638 25.2465,52.8008 25.2065,52.7668 C25.1665,52.7328 25.1085,52.7158 25.0315,52.7158 L23.4585,52.7158 L23.4585,56.5638 C23.4585,56.6398 23.4765,56.6988 23.5105,56.7388 L23.5105,56.7388 Z M12.6245,32.3638 C12.6245,29.8298 11.6995,28.0508 10.6535,26.2408 C13.1675,27.4618 16.5235,28.1048 20.4005,28.1048 C25.9965,28.1048 31.5355,26.7028 34.5645,24.5258 L30.8435,33.5298 L19.8235,33.5298 L28.5285,39.1318 L24.6035,48.1938 L27.9985,46.2898 L26.8425,49.5428 L12.6465,49.5428 C12.6315,39.3708 12.6245,33.6058 12.6245,32.3638 L12.6245,32.3638 Z M30.7185,44.7638 L29.6925,49.5428 L28.1395,49.5428 L29.2945,45.5628 L30.7185,44.7638 Z M32.8455,43.5708 L32.3565,49.5428 L30.9015,49.5428 L31.7235,44.2008 L32.8455,43.5708 Z M32.8335,41.9048 C32.8035,41.8598 32.7725,41.8128 32.7425,41.8018 C32.7245,41.8128 32.7115,41.8128 32.6755,41.8708 C32.6385,41.9388 32.6025,42.0078 32.5665,42.0648 C32.4935,42.1778 32.3345,42.3718 32.2685,42.4398 C31.8675,42.8618 31.5205,42.9078 31.3745,42.9298 C31.2955,42.9418 31.2225,42.9538 31.1495,42.9538 C31.1495,42.9538 30.7175,42.9538 30.3465,42.6688 C30.1825,42.5318 30.0675,42.3838 30.0125,42.3028 C29.6905,41.8708 29.5435,41.4028 29.4705,41.1758 C29.3195,40.6968 29.1495,39.9558 29.1495,38.7938 C29.1495,38.2348 29.1915,37.8018 29.2155,37.6078 C29.2645,37.2438 29.4585,35.9678 30.0795,35.2158 C30.3165,34.9298 30.7235,34.6348 31.1375,34.6348 C31.2165,34.6348 31.5815,34.6348 31.8975,34.8288 C31.9765,34.8738 32.0495,34.9298 32.1405,35.0098 C32.1955,35.0548 32.2985,35.1348 32.4265,35.2958 C32.5235,35.4088 32.5785,35.5118 32.6155,35.5118 C32.6575,35.5118 32.6885,35.4548 32.7005,35.4208 C32.7005,35.4208 32.7485,35.2958 32.7795,35.3058 C32.8035,35.3058 32.8215,35.3408 32.8215,35.3858 C32.8215,35.4208 32.8155,35.4438 32.7905,35.5008 C32.7005,35.7178 32.6155,35.9328 32.5235,36.1498 C32.4445,36.3548 32.3655,36.5718 32.2865,36.7878 C32.2805,36.7998 32.2565,36.9018 32.2195,36.9018 C32.1835,36.9018 32.1775,36.8438 32.1775,36.8338 C32.1775,36.7998 32.1895,36.7768 32.2075,36.7088 C32.2385,36.6168 32.2495,36.5718 32.2495,36.5258 C32.2495,36.4688 32.2015,36.2678 32.1405,36.1598 C31.9525,35.8728 31.6485,35.4538 31.1615,35.4538 C31.0705,35.4538 30.8325,35.4658 30.5715,35.7288 C30.2675,36.0278 29.7875,36.9698 29.7875,38.7018 C29.7875,38.9078 29.7935,39.1238 29.8055,39.3408 C29.8235,39.6598 29.8665,40.4108 30.1525,41.1288 C30.3595,41.6548 30.6815,42.1228 31.2105,42.1228 C31.3325,42.1228 31.7575,41.9388 32.1465,41.3238 C32.2625,41.1528 32.3415,40.9928 32.3415,40.9138 C32.3415,40.8908 32.3235,40.8338 32.2925,40.7538 C32.2745,40.7188 32.2565,40.6858 32.2495,40.6288 C32.2565,40.5598 32.2865,40.5488 32.2925,40.5488 C32.3345,40.5598 32.3595,40.6508 32.4145,40.7758 C32.4515,40.8678 32.4935,40.9478 32.5365,41.0278 C32.6575,41.2898 32.7855,41.5518 32.9135,41.8018 C32.9315,41.8478 32.9435,41.8818 32.9435,41.9048 C32.9435,41.9508 32.9185,41.9958 32.8945,41.9958 C32.8755,41.9958 32.8585,41.9508 32.8335,41.9048 L32.8335,41.9048 Z M33.5295,49.5428 L33.6655,43.5938 L33.6755,43.1048 L34.5885,42.5928 L35.5025,43.1058 L35.5135,43.5938 L35.6495,49.5428 L33.5295,49.5428 Z M35.5405,56.7408 C35.5775,56.7808 35.6375,56.8128 35.7255,56.8348 L35.7255,56.9538 L34.1415,56.9538 L34.1415,56.8348 C34.2305,56.8098 34.2915,56.7778 34.3275,56.7388 C34.3615,56.6988 34.3785,56.6398 34.3785,56.5638 L34.3785,52.2658 C34.3785,52.1918 34.3615,52.1348 34.3275,52.0948 C34.2915,52.0548 34.2305,52.0228 34.1415,51.9988 L34.1415,51.8798 L35.7255,51.8798 L35.7255,51.9988 C35.6355,52.0198 35.5745,52.0518 35.5395,52.0928 C35.5045,52.1348 35.4865,52.1918 35.4865,52.2658 L35.4865,56.5638 C35.4865,56.6398 35.5045,56.6998 35.5405,56.7408 L35.5405,56.7408 Z M37.4555,44.2008 L38.2775,49.5428 L36.8225,49.5428 L36.3335,43.5718 L37.4555,44.2008 Z M41.0395,49.5428 L39.4865,49.5428 L38.4605,44.7638 L39.8835,45.5628 L41.0395,49.5428 Z M40.3035,36.1598 C40.1145,35.8728 39.8105,35.4538 39.3235,35.4538 C39.2325,35.4538 38.9955,35.4658 38.7335,35.7288 C38.4305,36.0278 37.9495,36.9698 37.9495,38.7018 C37.9495,38.9078 37.9565,39.1238 37.9675,39.3408 C37.9865,39.6598 38.0285,40.4108 38.3145,41.1288 C38.5215,41.6548 38.8435,42.1228 39.3725,42.1228 C39.4945,42.1228 39.9195,41.9388 40.3095,41.3238 C40.4245,41.1528 40.5035,40.9928 40.5035,40.9138 C40.5035,40.8908 40.4855,40.8338 40.4555,40.7538 C40.4365,40.7188 40.4185,40.6858 40.4125,40.6288 C40.4185,40.5598 40.4485,40.5488 40.4555,40.5488 C40.4975,40.5598 40.5215,40.6508 40.5765,40.7758 C40.6135,40.8678 40.6555,40.9478 40.6985,41.0278 C40.8195,41.2898 40.9475,41.5518 41.0755,41.8018 C41.0935,41.8478 41.1055,41.8818 41.1055,41.9048 C41.1055,41.9508 41.0815,41.9958 41.0565,41.9958 C41.0385,41.9958 41.0205,41.9508 40.9965,41.9048 C40.9655,41.8598 40.9355,41.8128 40.9045,41.8018 C40.8865,41.8128 40.8745,41.8128 40.8375,41.8708 C40.8015,41.9388 40.7655,42.0078 40.7285,42.0648 C40.6555,42.1778 40.4975,42.3718 40.4305,42.4398 C40.0295,42.8618 39.6825,42.9078 39.5365,42.9298 C39.4575,42.9418 39.3845,42.9538 39.3115,42.9538 C39.3115,42.9538 38.8795,42.9538 38.5085,42.6688 C38.3445,42.5318 38.2295,42.3838 38.1745,42.3028 C37.8525,41.8708 37.7065,41.4028 37.6335,41.1758 C37.4815,40.6968 37.3115,39.9558 37.3115,38.7938 C37.3115,38.2348 37.3535,37.8018 37.3775,37.6078 C37.4265,37.2438 37.6215,35.9678 38.2415,35.2158 C38.4785,34.9298 38.8855,34.6348 39.2995,34.6348 C39.3785,34.6348 39.7435,34.6348 40.0595,34.8288 C40.1385,34.8738 40.2115,34.9298 40.3035,35.0098 C40.3575,35.0548 40.4605,35.1348 40.5885,35.2958 C40.6855,35.4088 40.7405,35.5118 40.7775,35.5118 C40.8195,35.5118 40.8505,35.4548 40.8625,35.4208 C40.8625,35.4208 40.9115,35.2958 40.9415,35.3058 C40.9655,35.3058 40.9835,35.3408 40.9835,35.3858 C40.9835,35.4208 40.9775,35.4438 40.9535,35.5008 C40.8625,35.7178 40.7775,35.9328 40.6855,36.1498 C40.6065,36.3548 40.5275,36.5718 40.4485,36.7878 C40.4425,36.7998 40.4185,36.9018 40.3825,36.9018 C40.3455,36.9018 40.3395,36.8438 40.3395,36.8338 C40.3395,36.7998 40.3515,36.7768 40.3695,36.7088 C40.4005,36.6168 40.4125,36.5718 40.4125,36.5258 C40.4125,36.4688 40.3635,36.2678 40.3035,36.1598 L40.3035,36.1598 Z M36.3805,36.2308 C36.5145,36.3648 36.7235,36.6058 36.8785,37.1028 C37.0205,37.5328 37.0655,38.1878 37.0655,38.5918 C37.0655,39.2758 36.9095,40.0258 36.8125,40.2678 C36.5145,41.0328 36.0455,41.2738 35.9945,41.3018 C35.8525,41.3678 35.7115,41.4088 35.3025,41.4228 L32.9885,41.4228 C32.9735,41.4228 32.8995,41.4228 32.8995,41.3148 C32.9065,41.2078 32.9815,41.2078 33.0185,41.2078 C33.0475,41.2078 33.1225,41.1938 33.1525,41.1528 C33.1825,41.0998 33.1825,40.9518 33.1825,40.7918 L33.1825,31.4418 C33.1745,31.4008 33.1675,31.3208 33.0925,31.2948 C33.0255,31.2668 32.9215,31.3208 32.9215,31.1738 C32.9215,31.1058 32.9365,31.0658 33.0035,31.0788 L34.6475,31.0788 C35.3985,31.0928 35.7925,31.0928 36.1425,31.3748 C36.2395,31.4418 36.5445,31.7108 36.7455,32.3018 C36.7825,32.4348 36.8195,32.5698 36.8495,32.7038 C36.8865,32.9048 36.9315,33.3858 36.9315,33.7208 C36.9315,33.8968 36.9385,34.7808 36.6415,35.3848 C36.5965,35.4658 36.5295,35.6138 36.4105,35.7598 C36.3365,35.8418 36.2615,35.9088 36.1135,36.0158 C36.2025,36.0698 36.2915,36.1358 36.3805,36.2308 L36.3805,36.2308 Z M59.4635,24.6408 L59.3615,24.7098 C56.9565,26.3188 53.1855,27.2058 48.7435,27.2058 C45.4945,27.2058 42.3045,26.7308 39.6425,25.9088 C39.6435,25.9078 39.6435,25.9058 39.6435,25.9048 C38.9175,25.6818 38.2325,25.4328 37.5975,25.1628 C37.5815,25.1558 37.5645,25.1488 37.5475,25.1418 C37.3815,25.0698 37.2205,24.9968 37.0615,24.9228 C36.9835,24.8848 36.9055,24.8488 36.8295,24.8108 C36.0725,24.4418 35.4015,24.0398 34.8425,23.6068 L34.5675,23.3928 L34.2905,23.6068 C31.4705,25.7928 26.0175,27.2058 20.4005,27.2058 C15.9585,27.2058 12.1885,26.3188 9.7835,24.7098 L9.6805,24.6408 L9.0535,25.2688 L9.1095,25.3678 C9.2765,25.6618 9.4435,25.9518 9.6085,26.2338 C10.7445,28.1838 11.7255,29.8668 11.7255,32.3638 C11.7255,34.0848 11.7385,44.4598 11.7655,63.1998 L11.7675,65.0378 C11.7675,69.6818 12.6115,72.0848 14.7775,73.6038 C16.3095,74.6798 19.2565,75.0828 22.3775,75.5078 C23.6925,75.6858 25.0515,75.8718 26.3575,76.1138 C26.8785,76.2098 27.3895,76.3288 27.8795,76.4618 C27.8795,76.4608 27.8795,76.4598 27.8805,76.4588 C29.7095,76.9528 31.2495,77.6508 31.9775,78.1968 C33.2855,79.1768 34.1025,80.3618 34.1875,80.4868 L34.5775,81.1278 L34.8185,80.7288 L34.8235,80.7298 L34.9625,80.4928 C35.0525,80.3608 35.8715,79.1758 37.1775,78.1968 C38.0985,77.5058 40.3215,76.5678 42.7875,76.1138 C44.0925,75.8718 45.4525,75.6858 46.7665,75.5078 C49.8875,75.0828 52.8355,74.6798 54.3665,73.6038 C56.5325,72.0848 57.3765,69.6818 57.3765,65.0378 L57.3785,63.1998 C57.4065,44.4598 57.4195,34.0848 57.4195,32.3638 C57.4195,29.8668 58.4005,28.1838 59.5365,26.2338 C59.7015,25.9518 59.8685,25.6618 60.0345,25.3678 L60.0905,25.2688 L59.4635,24.6408 Z" id="Fill-172" fill="#050048"/>
                    <path d="M32.3672,52.8238 C32.2332,52.7528 31.9972,52.7158 31.6572,52.7158 L29.9662,52.7158 L29.9662,54.0578 L31.6572,54.0578 C31.9942,54.0578 32.2312,54.0218 32.3672,53.9498 C32.4542,53.9028 32.5242,53.8278 32.5772,53.7248 C32.6312,53.6228 32.6572,53.5088 32.6572,53.3858 C32.6572,53.2638 32.6312,53.1508 32.5772,53.0488 C32.5242,52.9458 32.4542,52.8708 32.3672,52.8238" id="Fill-174" fill="#050048"/>
                    <path d="M35.0274,36.4527 L33.8964,36.4527 L33.8964,40.6827 L35.1014,40.6827 C35.1314,40.6827 35.5334,40.6987 35.7784,40.5147 C36.3064,40.1137 36.3134,38.8067 36.3134,38.6217 C36.3134,38.4827 36.3134,37.7467 36.1424,37.2687 C36.0764,37.0687 36.0014,36.9307 35.9124,36.8217 C35.6964,36.5297 35.4734,36.4987 35.0274,36.4527" id="Fill-176" fill="#050048"/>
                    <path d="M35.1089,31.8384 C34.9079,31.8224 34.7589,31.8224 34.6249,31.8224 L33.9109,31.8224 L33.9109,35.5454 L34.6619,35.5454 C35.4059,35.5454 35.7409,35.4984 36.0089,34.8514 C36.0829,34.6824 36.1799,34.1144 36.1799,33.6844 C36.1799,33.2054 36.0909,32.6854 36.0389,32.5314 C35.8299,31.9144 35.5399,31.8694 35.1089,31.8384" id="Fill-178" fill="#050048"/>
                </g>
            </g>
        </g>
    </g>
</svg>